<svg xmlns="http://www.w3.org/2000/svg" xmlns:xlink="http://www.w3.org/1999/xlink" xml:lang="en" height="143.0pt" width="129.79999999999998pt" viewBox="-22.6 -122.80000000000001 129.79999999999998 143.0"><circle cx="0" cy="-46.8" r="18" style="stroke:black;fill:none;stroke-width:2.0;stroke-dasharray:-;" /><path d="M 0.0,-0.0 L 0,-28.8 L 0,-28.8 M 0,-64.8 L 0,-64.8 L 0,-93.6" style="stroke:black;fill:none;stroke-width:2.0;stroke-dasharray:-;stroke-linecap:round;stroke-linejoin:round;" /><path d="M 3.6000000000000028,-37.800000000000004 L -3.6,-37.8" style="stroke:black;fill:none;stroke-width:2.0;stroke-dasharray:-;stroke-linecap:round;stroke-linejoin:round;" /><path d="M 3.1963281457745923e-15,-52.2 L 0,-59.4" style="stroke:black;fill:none;stroke-width:2.0;stroke-dasharray:-;stroke-linecap:round;stroke-linejoin:round;" /><path d="M 3.6000000000000036,-55.800000000000004 L -3.6,-55.8" style="stroke:black;fill:none;stroke-width:2.0;stroke-dasharray:-;stroke-linecap:round;stroke-linejoin:round;" /><path d="M 5.731347020009614e-15,-93.60000000000001 L 43.56,-93.6 M 43.56,-102.6 L 43.56,-84.6 M 50.04,-102.6 L 50.04,-84.6 M 50.04,-93.6 L 93.6,-93.6" style="stroke:black;fill:none;stroke-width:2.0;stroke-dasharray:-;stroke-linecap:round;stroke-linejoin:round;" /><path d="M 93.6,-93.60000000000001 L 93.6,-64.8 L 102.6,-61.8 L 84.6,-55.8 L 102.6,-49.8 L 84.6,-43.8 L 102.6,-37.8 L 84.6,-31.8 L 93.6,-28.8 L 93.6,-0" style="stroke:black;fill:none;stroke-width:2.0;stroke-dasharray:-;stroke-linecap:round;stroke-linejoin:round;" /><path d="M 93.59999999999997,-0.0 L 46.8,-0 L 0,-0" style="stroke:black;fill:none;stroke-width:2.0;stroke-dasharray:-;stroke-linecap:round;stroke-linejoin:round;" /><text x="-2.2043642384652353e-16" y="-8.4" dominant-baseline="hanging" fill="black" font-size="12" font-family="sans" text-anchor="middle"><tspan x="-2.2043642384652353e-16" dy="12">V<tspan baseline-shift="-2" font-size="smaller">in</tspan></tspan></text><text x="46.800000000000004" y="-118.2" dominant-baseline="ideographic" fill="black" font-size="12" font-family="sans" text-anchor="middle"><tspan x="46.800000000000004" dy="12">V<tspan baseline-shift="-2" font-size="smaller">C</tspan></tspan></text><text x="80.99999999999999" y="-58.800000000000004" dominant-baseline="central" fill="black" font-size="12" font-family="sans" text-anchor="end"><tspan x="80.99999999999999" dy="12">V<tspan baseline-shift="-2" font-size="smaller">R</tspan></tspan></text><path d="M 7.199999999999998,-93.60000000000001 L 7.2,-93.6" style="stroke:black;fill:none;stroke-width:2.0;stroke-dasharray:-;stroke-linecap:round;stroke-linejoin:round;" /><path d="M 16 -93.6 L 7.2 -88.2 L 7.2 -99 Z" style="stroke:black;fill:black;stroke-linecap:butt;stroke-linejoin:miter;" /><text x="12.6" y="-116.39999999999999" dominant-baseline="ideographic" fill="black" font-size="12" font-family="sans" text-anchor="middle"><tspan x="12.6" dy="12">I(t)</tspan></text></svg>