<?xml version="1.0" encoding="utf-8" standalone="no"?>
<!DOCTYPE svg PUBLIC "-//W3C//DTD SVG 1.1//EN"
  "http://www.w3.org/Graphics/SVG/1.1/DTD/svg11.dtd">
<svg xmlns:xlink="http://www.w3.org/1999/xlink" width="403.2pt" height="288pt" viewBox="0 0 403.2 288" xmlns="http://www.w3.org/2000/svg" version="1.1">
 <metadata>
  <rdf:RDF xmlns:dc="http://purl.org/dc/elements/1.1/" xmlns:cc="http://creativecommons.org/ns#" xmlns:rdf="http://www.w3.org/1999/02/22-rdf-syntax-ns#">
   <cc:Work>
    <dc:type rdf:resource="http://purl.org/dc/dcmitype/StillImage"/>
    <dc:date>2026-09-15T17:10:32.493646</dc:date>
    <dc:format>image/svg+xml</dc:format>
    <dc:creator>
     <cc:Agent>
      <dc:title>Matplotlib v3.11.2, https://matplotlib.org/</dc:title>
     </cc:Agent>
    </dc:creator>
   </cc:Work>
  </rdf:RDF>
 </metadata>
 <defs>
  <style type="text/css">*{stroke-linejoin: round; stroke-linecap: butt}</style>
 </defs>
 <g id="figure_1">
  <g id="patch_1">
   <path d="M 0 288 
L 403.2 288 
L 403.2 0 
L 0 0 
L 0 288 
z
" style="fill: none"/>
  </g>
  <g id="axes_1">
   <g id="patch_2">
    <path d="M 63.802344 162.84 
L 392.4 162.84 
L 392.4 24.72 
L 63.802344 24.72 
L 63.802344 162.84 
z
" style="fill: none"/>
   </g>
   <g id="matplotlib.axis_1">
    <g id="xtick_1">
     <g id="line2d_1">
      <path d="M 78.738601 162.84 
L 78.738601 24.72 
" clip-path="url(#p863c66ac8a)" style="fill: none; stroke-dasharray: 0.5,0.825; stroke-dashoffset: 0; stroke: #d9d9d9; stroke-width: 0.5"/>
     </g>
     <g id="line2d_2">
      <defs>
       <path id="mf5301bee8a" d="M 0 0 
L 0 3.5 
" style="stroke: #000000; stroke-width: 0.8"/>
      </defs>
      <g>
       <use xlink:href="#mf5301bee8a" x="78.738601" y="162.84" style="stroke: #000000; stroke-width: 0.8"/>
      </g>
     </g>
    </g>
    <g id="xtick_2">
     <g id="line2d_3">
      <path d="M 128.534424 162.84 
L 128.534424 24.72 
" clip-path="url(#p863c66ac8a)" style="fill: none; stroke-dasharray: 0.5,0.825; stroke-dashoffset: 0; stroke: #d9d9d9; stroke-width: 0.5"/>
     </g>
     <g id="line2d_4">
      <g>
       <use xlink:href="#mf5301bee8a" x="128.534424" y="162.84" style="stroke: #000000; stroke-width: 0.8"/>
      </g>
     </g>
    </g>
    <g id="xtick_3">
     <g id="line2d_5">
      <path d="M 178.330247 162.84 
L 178.330247 24.72 
" clip-path="url(#p863c66ac8a)" style="fill: none; stroke-dasharray: 0.5,0.825; stroke-dashoffset: 0; stroke: #d9d9d9; stroke-width: 0.5"/>
     </g>
     <g id="line2d_6">
      <g>
       <use xlink:href="#mf5301bee8a" x="178.330247" y="162.84" style="stroke: #000000; stroke-width: 0.8"/>
      </g>
     </g>
    </g>
    <g id="xtick_4">
     <g id="line2d_7">
      <path d="M 228.12607 162.84 
L 228.12607 24.72 
" clip-path="url(#p863c66ac8a)" style="fill: none; stroke-dasharray: 0.5,0.825; stroke-dashoffset: 0; stroke: #d9d9d9; stroke-width: 0.5"/>
     </g>
     <g id="line2d_8">
      <g>
       <use xlink:href="#mf5301bee8a" x="228.12607" y="162.84" style="stroke: #000000; stroke-width: 0.8"/>
      </g>
     </g>
    </g>
    <g id="xtick_5">
     <g id="line2d_9">
      <path d="M 277.921893 162.84 
L 277.921893 24.72 
" clip-path="url(#p863c66ac8a)" style="fill: none; stroke-dasharray: 0.5,0.825; stroke-dashoffset: 0; stroke: #d9d9d9; stroke-width: 0.5"/>
     </g>
     <g id="line2d_10">
      <g>
       <use xlink:href="#mf5301bee8a" x="277.921893" y="162.84" style="stroke: #000000; stroke-width: 0.8"/>
      </g>
     </g>
    </g>
    <g id="xtick_6">
     <g id="line2d_11">
      <path d="M 327.717716 162.84 
L 327.717716 24.72 
" clip-path="url(#p863c66ac8a)" style="fill: none; stroke-dasharray: 0.5,0.825; stroke-dashoffset: 0; stroke: #d9d9d9; stroke-width: 0.5"/>
     </g>
     <g id="line2d_12">
      <g>
       <use xlink:href="#mf5301bee8a" x="327.717716" y="162.84" style="stroke: #000000; stroke-width: 0.8"/>
      </g>
     </g>
    </g>
    <g id="xtick_7">
     <g id="line2d_13">
      <path d="M 377.513539 162.84 
L 377.513539 24.72 
" clip-path="url(#p863c66ac8a)" style="fill: none; stroke-dasharray: 0.5,0.825; stroke-dashoffset: 0; stroke: #d9d9d9; stroke-width: 0.5"/>
     </g>
     <g id="line2d_14">
      <g>
       <use xlink:href="#mf5301bee8a" x="377.513539" y="162.84" style="stroke: #000000; stroke-width: 0.8"/>
      </g>
     </g>
    </g>
   </g>
   <g id="matplotlib.axis_2">
    <g id="ytick_1">
     <g id="line2d_15">
      <path d="M 63.802344 58.047165 
L 392.4 58.047165 
" clip-path="url(#p863c66ac8a)" style="fill: none; stroke-dasharray: 0.5,0.825; stroke-dashoffset: 0; stroke: #d9d9d9; stroke-width: 0.5"/>
     </g>
     <g id="line2d_16">
      <defs>
       <path id="mf0415671d2" d="M 0 0 
L -3.5 0 
" style="stroke: #000000; stroke-width: 0.8"/>
      </defs>
      <g>
       <use xlink:href="#mf0415671d2" x="63.802344" y="58.047165" style="stroke: #000000; stroke-width: 0.8"/>
      </g>
     </g>
     <g id="text_1">
      <!-- $SP-\Delta$ -->
      <g transform="translate(25.302344 61.845993) scale(0.1 -0.1)">
       <defs>
        <path id="DejaVuSans-Oblique-36" d="M 3859 4513 
L 3738 3897 
Q 3422 4066 3111 4152 
Q 2800 4238 2509 4238 
Q 1944 4238 1609 3991 
Q 1275 3744 1275 3334 
Q 1275 3109 1398 2989 
Q 1522 2869 2034 2731 
L 2413 2638 
Q 3053 2472 3303 2217 
Q 3553 1963 3553 1503 
Q 3553 797 2998 353 
Q 2444 -91 1538 -91 
Q 1166 -91 791 -17 
Q 416 56 38 206 
L 166 856 
Q 513 641 861 531 
Q 1209 422 1556 422 
Q 2147 422 2503 684 
Q 2859 947 2859 1369 
Q 2859 1650 2717 1795 
Q 2575 1941 2106 2059 
L 1728 2156 
Q 1081 2325 845 2545 
Q 609 2766 609 3163 
Q 609 3859 1145 4304 
Q 1681 4750 2541 4750 
Q 2875 4750 3203 4690 
Q 3531 4631 3859 4513 
z
" transform="scale(0.015625)"/>
        <path id="DejaVuSans-Oblique-33" d="M 1081 4666 
L 2541 4666 
Q 3178 4666 3512 4369 
Q 3847 4072 3847 3500 
Q 3847 2731 3353 2303 
Q 2859 1875 1966 1875 
L 1172 1875 
L 806 0 
L 172 0 
L 1081 4666 
z
M 1613 4147 
L 1275 2394 
L 2069 2394 
Q 2606 2394 2893 2669 
Q 3181 2944 3181 3456 
Q 3181 3784 2986 3965 
Q 2791 4147 2438 4147 
L 1613 4147 
z
" transform="scale(0.015625)"/>
        <path id="DejaVuSans-c9c" d="M 678 2272 
L 4684 2272 
L 4684 1741 
L 678 1741 
L 678 2272 
z
" transform="scale(0.015625)"/>
        <path id="DejaVuSans-329" d="M 2188 4044 
L 906 525 
L 3472 525 
L 2188 4044 
z
M 50 0 
L 1831 4666 
L 2547 4666 
L 4325 0 
L 50 0 
z
" transform="scale(0.015625)"/>
       </defs>
       <use xlink:href="#DejaVuSans-Oblique-36" transform="translate(0 0.78125)"/>
       <use xlink:href="#DejaVuSans-Oblique-33" transform="translate(63.476562 0.78125)"/>
       <use xlink:href="#DejaVuSans-c9c" transform="translate(143.261719 0.78125)"/>
       <use xlink:href="#DejaVuSans-329" transform="translate(246.533203 0.78125)"/>
      </g>
     </g>
    </g>
    <g id="ytick_2">
     <g id="line2d_17">
      <path d="M 63.802344 44.613349 
L 392.4 44.613349 
" clip-path="url(#p863c66ac8a)" style="fill: none; stroke-dasharray: 0.5,0.825; stroke-dashoffset: 0; stroke: #d9d9d9; stroke-width: 0.5"/>
     </g>
     <g id="line2d_18">
      <g>
       <use xlink:href="#mf0415671d2" x="63.802344" y="44.613349" style="stroke: #000000; stroke-width: 0.8"/>
      </g>
     </g>
     <g id="text_2">
      <!-- $SP$ -->
      <g transform="translate(44.402344 48.412177) scale(0.1 -0.1)">
       <use xlink:href="#DejaVuSans-Oblique-36" transform="translate(0 0.78125)"/>
       <use xlink:href="#DejaVuSans-Oblique-33" transform="translate(63.476562 0.78125)"/>
      </g>
     </g>
    </g>
    <g id="ytick_3">
     <g id="line2d_19">
      <path d="M 63.802344 31.179532 
L 392.4 31.179532 
" clip-path="url(#p863c66ac8a)" style="fill: none; stroke-dasharray: 0.5,0.825; stroke-dashoffset: 0; stroke: #d9d9d9; stroke-width: 0.5"/>
     </g>
     <g id="line2d_20">
      <g>
       <use xlink:href="#mf0415671d2" x="63.802344" y="31.179532" style="stroke: #000000; stroke-width: 0.8"/>
      </g>
     </g>
     <g id="text_3">
      <!-- $SP+\Delta$ -->
      <g transform="translate(25.302344 34.978361) scale(0.1 -0.1)">
       <defs>
        <path id="DejaVuSans-e" d="M 2944 4013 
L 2944 2272 
L 4684 2272 
L 4684 1741 
L 2944 1741 
L 2944 0 
L 2419 0 
L 2419 1741 
L 678 1741 
L 678 2272 
L 2419 2272 
L 2419 4013 
L 2944 4013 
z
" transform="scale(0.015625)"/>
       </defs>
       <use xlink:href="#DejaVuSans-Oblique-36" transform="translate(0 0.78125)"/>
       <use xlink:href="#DejaVuSans-Oblique-33" transform="translate(63.476562 0.78125)"/>
       <use xlink:href="#DejaVuSans-e" transform="translate(143.261719 0.78125)"/>
       <use xlink:href="#DejaVuSans-329" transform="translate(246.533203 0.78125)"/>
      </g>
     </g>
    </g>
    <g id="text_4">
     <!-- $h(t)$ -->
     <g transform="translate(18.9 102.83) rotate(-90) scale(0.1 -0.1)">
      <defs>
       <path id="DejaVuSans-Oblique-4b" d="M 3566 2113 
L 3156 0 
L 2578 0 
L 2988 2091 
Q 3016 2238 3031 2350 
Q 3047 2463 3047 2528 
Q 3047 2791 2881 2937 
Q 2716 3084 2419 3084 
Q 1956 3084 1617 2771 
Q 1278 2459 1178 1941 
L 800 0 
L 225 0 
L 1172 4863 
L 1747 4863 
L 1375 2950 
Q 1594 3244 1934 3414 
Q 2275 3584 2650 3584 
Q 3113 3584 3367 3334 
Q 3622 3084 3622 2631 
Q 3622 2519 3608 2391 
Q 3594 2263 3566 2113 
z
" transform="scale(0.015625)"/>
       <path id="DejaVuSans-b" d="M 1984 4856 
Q 1566 4138 1362 3434 
Q 1159 2731 1159 2009 
Q 1159 1288 1364 580 
Q 1569 -128 1984 -844 
L 1484 -844 
Q 1016 -109 783 600 
Q 550 1309 550 2009 
Q 550 2706 781 3412 
Q 1013 4119 1484 4856 
L 1984 4856 
z
" transform="scale(0.015625)"/>
       <path id="DejaVuSans-Oblique-57" d="M 2706 3500 
L 2619 3053 
L 1472 3053 
L 1100 1153 
Q 1081 1047 1072 975 
Q 1063 903 1063 863 
Q 1063 663 1183 572 
Q 1303 481 1569 481 
L 2150 481 
L 2053 0 
L 1503 0 
Q 991 0 739 200 
Q 488 400 488 806 
Q 488 878 497 964 
Q 506 1050 525 1153 
L 897 3053 
L 409 3053 
L 500 3500 
L 978 3500 
L 1172 4494 
L 1747 4494 
L 1556 3500 
L 2706 3500 
z
" transform="scale(0.015625)"/>
       <path id="DejaVuSans-c" d="M 513 4856 
L 1013 4856 
Q 1481 4119 1714 3412 
Q 1947 2706 1947 2009 
Q 1947 1309 1714 600 
Q 1481 -109 1013 -844 
L 513 -844 
Q 928 -128 1133 580 
Q 1338 1288 1338 2009 
Q 1338 2731 1133 3434 
Q 928 4138 513 4856 
z
" transform="scale(0.015625)"/>
      </defs>
      <use xlink:href="#DejaVuSans-Oblique-4b" transform="translate(0 0.015625)"/>
      <use xlink:href="#DejaVuSans-b" transform="translate(63.378906 0.015625)"/>
      <use xlink:href="#DejaVuSans-Oblique-57" transform="translate(102.392578 0.015625)"/>
      <use xlink:href="#DejaVuSans-c" transform="translate(141.601562 0.015625)"/>
     </g>
    </g>
   </g>
   <g id="line2d_21">
    <path d="M 63.802344 44.613349 
L 392.4 44.613349 
" clip-path="url(#p863c66ac8a)" style="fill: none; stroke-dasharray: 3.33,1.44; stroke-dashoffset: 0; stroke: #737373; stroke-width: 0.9"/>
   </g>
   <g id="line2d_22">
    <path d="M 63.802344 31.179532 
L 392.4 31.179532 
" clip-path="url(#p863c66ac8a)" style="fill: none; stroke-dasharray: 0.8,1.32; stroke-dashoffset: 0; stroke: #b2b2b2; stroke-width: 0.8"/>
   </g>
   <g id="line2d_23">
    <path d="M 63.802344 58.047165 
L 392.4 58.047165 
" clip-path="url(#p863c66ac8a)" style="fill: none; stroke-dasharray: 0.8,1.32; stroke-dashoffset: 0; stroke: #b2b2b2; stroke-width: 0.8"/>
   </g>
   <g id="line2d_24">
    <path d="M 78.738601 156.561818 
L 81.1288 136.04764 
L 83.519 117.413038 
L 85.909199 100.485801 
L 88.299399 85.109493 
L 90.689598 71.142013 
L 93.079798 58.45428 
L 95.469997 46.929039 
L 97.909993 36.252188 
L 99.204684 30.998182 
L 101.594884 42.502738 
L 104.034879 53.160425 
L 105.279774 58.208295 
L 107.669974 46.705592 
L 110.109969 36.049621 
L 111.354865 31.002564 
L 113.745064 42.506718 
L 116.18506 53.164034 
L 117.429955 58.211727 
L 119.820155 46.70871 
L 122.26015 36.052447 
L 123.505046 31.005252 
L 125.895245 42.50916 
L 128.335241 53.166248 
L 129.580136 58.213833 
L 131.970336 46.710623 
L 134.410331 36.054181 
L 135.655227 31.006902 
L 138.045426 42.510659 
L 140.485421 53.167606 
L 141.730317 58.215125 
L 144.120516 46.711796 
L 146.560512 36.055245 
L 147.805407 31.007914 
L 150.195607 42.511578 
L 152.635602 53.16844 
L 153.880498 58.215918 
L 156.270697 46.712517 
L 158.710693 36.055898 
L 159.955588 31.008535 
L 162.345788 42.512142 
L 164.785783 53.168951 
L 166.030679 58.216405 
L 168.420878 46.712958 
L 170.860873 36.056299 
L 172.105769 31.008916 
L 174.495968 42.512488 
L 176.935964 53.169265 
L 178.180859 58.216703 
L 180.571059 46.713229 
L 183.011054 36.056545 
L 184.25595 31.00915 
L 186.646149 42.512701 
L 189.086145 53.169457 
L 190.33104 58.216886 
L 192.72124 46.713396 
L 195.161235 36.056695 
L 196.406131 31.009293 
L 198.79633 42.512831 
L 201.236325 53.169575 
L 202.481221 58.216998 
L 204.87142 46.713498 
L 207.311416 36.056788 
L 208.556311 31.009381 
L 210.946511 42.512911 
L 213.386506 53.169648 
L 214.631402 58.217067 
L 217.021601 46.71356 
L 219.461597 36.056845 
L 220.706492 31.009435 
L 223.096692 42.51296 
L 225.536687 53.169692 
L 226.781583 58.21711 
L 229.171782 46.713599 
L 231.611777 36.056879 
L 232.856673 31.009468 
L 235.246872 42.51299 
L 237.686868 53.169719 
L 238.931763 58.217136 
L 241.321963 46.713622 
L 243.761958 36.056901 
L 245.006854 31.009488 
L 247.397053 42.513008 
L 249.837049 53.169736 
L 251.081944 58.217151 
L 253.472144 46.713637 
L 255.912139 36.056914 
L 257.157035 31.009501 
L 259.547234 42.51302 
L 261.987229 53.169746 
L 263.232125 58.217161 
L 265.622324 46.713646 
L 268.06232 36.056922 
L 269.307215 31.009509 
L 271.697415 42.513027 
L 274.13741 53.169753 
L 275.382306 58.217167 
L 277.772505 46.713651 
L 280.212501 36.056927 
L 281.457396 31.009513 
L 283.847596 42.513031 
L 286.287591 53.169757 
L 287.532487 58.217171 
L 289.922686 46.713655 
L 292.362681 36.05693 
L 293.607577 31.009516 
L 295.997777 42.513034 
L 298.437772 53.169759 
L 299.682667 58.217173 
L 302.072867 46.713657 
L 304.512862 36.056932 
L 305.757758 31.009518 
L 308.147957 42.513035 
L 310.587953 53.16976 
L 311.832848 58.217175 
L 314.223048 46.713658 
L 316.663043 36.056933 
L 317.907939 31.009519 
L 320.298138 42.513036 
L 322.738133 53.169761 
L 323.983029 58.217175 
L 326.373229 46.713659 
L 328.813224 36.056934 
L 330.058119 31.00952 
L 332.448319 42.513037 
L 334.888314 53.169762 
L 336.13321 58.217176 
L 338.523409 46.713659 
L 340.963405 36.056934 
L 342.2083 31.00952 
L 344.5985 42.513037 
L 347.038495 53.169762 
L 348.283391 58.217176 
L 350.67359 46.713659 
L 353.113585 36.056934 
L 354.358481 31.00952 
L 356.748681 42.513037 
L 359.188676 53.169762 
L 360.433571 58.217176 
L 362.823771 46.71366 
L 365.263766 36.056934 
L 366.508662 31.009521 
L 368.898861 42.513037 
L 371.338857 53.169763 
L 372.583752 58.217177 
L 374.973952 46.71366 
L 377.413947 36.056935 
L 377.463743 35.85015 
L 377.463743 35.85015 
" clip-path="url(#p863c66ac8a)" style="fill: none; stroke: #000000; stroke-width: 1.3; stroke-linecap: square"/>
   </g>
   <g id="patch_3">
    <path d="M 63.802344 162.84 
L 63.802344 24.72 
" style="fill: none; stroke: #000000; stroke-width: 0.8; stroke-linejoin: miter; stroke-linecap: square"/>
   </g>
   <g id="patch_4">
    <path d="M 63.802344 162.84 
L 392.4 162.84 
" style="fill: none; stroke: #000000; stroke-width: 0.8; stroke-linejoin: miter; stroke-linecap: square"/>
   </g>
   <g id="text_5">
    <!-- Control on-off con histéresis -->
    <g transform="translate(157.834766 18.72) scale(0.1 -0.1)">
     <defs>
      <path id="DejaVuSans-26" d="M 4122 4306 
L 4122 3641 
Q 3803 3938 3442 4084 
Q 3081 4231 2675 4231 
Q 1875 4231 1450 3742 
Q 1025 3253 1025 2328 
Q 1025 1406 1450 917 
Q 1875 428 2675 428 
Q 3081 428 3442 575 
Q 3803 722 4122 1019 
L 4122 359 
Q 3791 134 3420 21 
Q 3050 -91 2638 -91 
Q 1578 -91 968 557 
Q 359 1206 359 2328 
Q 359 3453 968 4101 
Q 1578 4750 2638 4750 
Q 3056 4750 3426 4639 
Q 3797 4528 4122 4306 
z
" transform="scale(0.015625)"/>
      <path id="DejaVuSans-52" d="M 1959 3097 
Q 1497 3097 1228 2736 
Q 959 2375 959 1747 
Q 959 1119 1226 758 
Q 1494 397 1959 397 
Q 2419 397 2687 759 
Q 2956 1122 2956 1747 
Q 2956 2369 2687 2733 
Q 2419 3097 1959 3097 
z
M 1959 3584 
Q 2709 3584 3137 3096 
Q 3566 2609 3566 1747 
Q 3566 888 3137 398 
Q 2709 -91 1959 -91 
Q 1206 -91 779 398 
Q 353 888 353 1747 
Q 353 2609 779 3096 
Q 1206 3584 1959 3584 
z
" transform="scale(0.015625)"/>
      <path id="DejaVuSans-51" d="M 3513 2113 
L 3513 0 
L 2938 0 
L 2938 2094 
Q 2938 2591 2744 2837 
Q 2550 3084 2163 3084 
Q 1697 3084 1428 2787 
Q 1159 2491 1159 1978 
L 1159 0 
L 581 0 
L 581 3500 
L 1159 3500 
L 1159 2956 
Q 1366 3272 1645 3428 
Q 1925 3584 2291 3584 
Q 2894 3584 3203 3211 
Q 3513 2838 3513 2113 
z
" transform="scale(0.015625)"/>
      <path id="DejaVuSans-57" d="M 1172 4494 
L 1172 3500 
L 2356 3500 
L 2356 3053 
L 1172 3053 
L 1172 1153 
Q 1172 725 1289 603 
Q 1406 481 1766 481 
L 2356 481 
L 2356 0 
L 1766 0 
Q 1100 0 847 248 
Q 594 497 594 1153 
L 594 3053 
L 172 3053 
L 172 3500 
L 594 3500 
L 594 4494 
L 1172 4494 
z
" transform="scale(0.015625)"/>
      <path id="DejaVuSans-55" d="M 2631 2963 
Q 2534 3019 2420 3045 
Q 2306 3072 2169 3072 
Q 1681 3072 1420 2755 
Q 1159 2438 1159 1844 
L 1159 0 
L 581 0 
L 581 3500 
L 1159 3500 
L 1159 2956 
Q 1341 3275 1631 3429 
Q 1922 3584 2338 3584 
Q 2397 3584 2469 3576 
Q 2541 3569 2628 3553 
L 2631 2963 
z
" transform="scale(0.015625)"/>
      <path id="DejaVuSans-4f" d="M 603 4863 
L 1178 4863 
L 1178 0 
L 603 0 
L 603 4863 
z
" transform="scale(0.015625)"/>
      <path id="DejaVuSans-3" transform="scale(0.015625)"/>
      <path id="DejaVuSans-10" d="M 313 2009 
L 1997 2009 
L 1997 1497 
L 313 1497 
L 313 2009 
z
" transform="scale(0.015625)"/>
      <path id="DejaVuSans-13ae" d="M 4531 4863 
L 4531 4384 
L 3981 4384 
Q 3672 4384 3551 4259 
Q 3431 4134 3431 3809 
L 3431 3500 
L 4378 3500 
L 4378 3053 
L 3431 3053 
L 3431 0 
L 2853 0 
L 2853 3053 
L 1275 3053 
L 1275 0 
L 697 0 
L 697 3053 
L 147 3053 
L 147 3500 
L 697 3500 
L 697 3744 
Q 697 4328 969 4595 
Q 1241 4863 1831 4863 
L 2375 4863 
L 2375 4384 
L 1825 4384 
Q 1516 4384 1394 4259 
Q 1275 4134 1275 3809 
L 1275 3500 
L 2853 3500 
L 2853 3744 
Q 2853 4328 3125 4595 
Q 3397 4863 3988 4863 
L 4531 4863 
z
" transform="scale(0.015625)"/>
      <path id="DejaVuSans-46" d="M 3122 3366 
L 3122 2828 
Q 2878 2963 2633 3030 
Q 2388 3097 2138 3097 
Q 1578 3097 1268 2742 
Q 959 2388 959 1747 
Q 959 1106 1268 751 
Q 1578 397 2138 397 
Q 2388 397 2633 464 
Q 2878 531 3122 666 
L 3122 134 
Q 2881 22 2623 -34 
Q 2366 -91 2075 -91 
Q 1284 -91 818 406 
Q 353 903 353 1747 
Q 353 2603 823 3093 
Q 1294 3584 2113 3584 
Q 2378 3584 2631 3529 
Q 2884 3475 3122 3366 
z
" transform="scale(0.015625)"/>
      <path id="DejaVuSans-4b" d="M 3513 2113 
L 3513 0 
L 2938 0 
L 2938 2094 
Q 2938 2591 2744 2837 
Q 2550 3084 2163 3084 
Q 1697 3084 1428 2787 
Q 1159 2491 1159 1978 
L 1159 0 
L 581 0 
L 581 4863 
L 1159 4863 
L 1159 2956 
Q 1366 3272 1645 3428 
Q 1925 3584 2291 3584 
Q 2894 3584 3203 3211 
Q 3513 2838 3513 2113 
z
" transform="scale(0.015625)"/>
      <path id="DejaVuSans-4c" d="M 603 3500 
L 1178 3500 
L 1178 0 
L 603 0 
L 603 3500 
z
M 603 4863 
L 1178 4863 
L 1178 4134 
L 603 4134 
L 603 4863 
z
" transform="scale(0.015625)"/>
      <path id="DejaVuSans-56" d="M 2834 3397 
L 2834 2853 
Q 2591 2978 2328 3040 
Q 2066 3103 1784 3103 
Q 1356 3103 1142 2972 
Q 928 2841 928 2578 
Q 928 2378 1081 2264 
Q 1234 2150 1697 2047 
L 1894 2003 
Q 2506 1872 2764 1633 
Q 3022 1394 3022 966 
Q 3022 478 2636 193 
Q 2250 -91 1575 -91 
Q 1294 -91 989 -36 
Q 684 19 347 128 
L 347 722 
Q 666 556 975 473 
Q 1284 391 1588 391 
Q 1994 391 2212 530 
Q 2431 669 2431 922 
Q 2431 1156 2273 1281 
Q 2116 1406 1581 1522 
L 1381 1569 
Q 847 1681 609 1914 
Q 372 2147 372 2553 
Q 372 3047 722 3315 
Q 1072 3584 1716 3584 
Q 2034 3584 2315 3537 
Q 2597 3491 2834 3397 
z
" transform="scale(0.015625)"/>
      <path id="DejaVuSans-ab" d="M 3597 1894 
L 3597 1613 
L 953 1613 
Q 991 1019 1311 708 
Q 1631 397 2203 397 
Q 2534 397 2845 478 
Q 3156 559 3463 722 
L 3463 178 
Q 3153 47 2828 -22 
Q 2503 -91 2169 -91 
Q 1331 -91 842 396 
Q 353 884 353 1716 
Q 353 2575 817 3079 
Q 1281 3584 2069 3584 
Q 2775 3584 3186 3129 
Q 3597 2675 3597 1894 
z
M 3022 2063 
Q 3016 2534 2758 2815 
Q 2500 3097 2075 3097 
Q 1594 3097 1305 2825 
Q 1016 2553 972 2059 
L 3022 2063 
z
M 2468 5119 
L 3090 5119 
L 2072 3944 
L 1593 3944 
L 2468 5119 
z
" transform="scale(0.015625)"/>
      <path id="DejaVuSans-48" d="M 3597 1894 
L 3597 1613 
L 953 1613 
Q 991 1019 1311 708 
Q 1631 397 2203 397 
Q 2534 397 2845 478 
Q 3156 559 3463 722 
L 3463 178 
Q 3153 47 2828 -22 
Q 2503 -91 2169 -91 
Q 1331 -91 842 396 
Q 353 884 353 1716 
Q 353 2575 817 3079 
Q 1281 3584 2069 3584 
Q 2775 3584 3186 3129 
Q 3597 2675 3597 1894 
z
M 3022 2063 
Q 3016 2534 2758 2815 
Q 2500 3097 2075 3097 
Q 1594 3097 1305 2825 
Q 1016 2553 972 2059 
L 3022 2063 
z
" transform="scale(0.015625)"/>
     </defs>
     <use xlink:href="#DejaVuSans-26"/>
     <use xlink:href="#DejaVuSans-52" transform="translate(69.828125 0)"/>
     <use xlink:href="#DejaVuSans-51" transform="translate(131.015625 0)"/>
     <use xlink:href="#DejaVuSans-57" transform="translate(194.390625 0)"/>
     <use xlink:href="#DejaVuSans-55" transform="translate(233.59375 0)"/>
     <use xlink:href="#DejaVuSans-52" transform="translate(272.5 0)"/>
     <use xlink:href="#DejaVuSans-4f" transform="translate(333.6875 0)"/>
     <use xlink:href="#DejaVuSans-3" transform="translate(361.46875 0)"/>
     <use xlink:href="#DejaVuSans-52" transform="translate(393.25 0)"/>
     <use xlink:href="#DejaVuSans-51" transform="translate(454.4375 0)"/>
     <use xlink:href="#DejaVuSans-10" transform="translate(517.8125 0)"/>
     <use xlink:href="#DejaVuSans-52" transform="translate(555.75 0)"/>
     <use xlink:href="#DejaVuSans-13ae" transform="translate(616.9375 0)"/>
     <use xlink:href="#DejaVuSans-3" transform="translate(685.828125 0)"/>
     <use xlink:href="#DejaVuSans-46" transform="translate(717.609375 0)"/>
     <use xlink:href="#DejaVuSans-52" transform="translate(772.59375 0)"/>
     <use xlink:href="#DejaVuSans-51" transform="translate(833.78125 0)"/>
     <use xlink:href="#DejaVuSans-3" transform="translate(897.15625 0)"/>
     <use xlink:href="#DejaVuSans-4b" transform="translate(928.9375 0)"/>
     <use xlink:href="#DejaVuSans-4c" transform="translate(992.3125 0)"/>
     <use xlink:href="#DejaVuSans-56" transform="translate(1020.09375 0)"/>
     <use xlink:href="#DejaVuSans-57" transform="translate(1072.1875 0)"/>
     <use xlink:href="#DejaVuSans-ab" transform="translate(1111.390625 0)"/>
     <use xlink:href="#DejaVuSans-55" transform="translate(1172.921875 0)"/>
     <use xlink:href="#DejaVuSans-48" transform="translate(1211.828125 0)"/>
     <use xlink:href="#DejaVuSans-56" transform="translate(1273.359375 0)"/>
     <use xlink:href="#DejaVuSans-4c" transform="translate(1325.453125 0)"/>
     <use xlink:href="#DejaVuSans-56" transform="translate(1353.234375 0)"/>
    </g>
   </g>
  </g>
  <g id="axes_2">
   <g id="patch_5">
    <path d="M 63.802344 246.2 
L 392.4 246.2 
L 392.4 177.14 
L 63.802344 177.14 
L 63.802344 246.2 
z
" style="fill: none"/>
   </g>
   <g id="matplotlib.axis_3">
    <g id="xtick_8">
     <g id="line2d_25">
      <path d="M 78.738601 246.2 
L 78.738601 177.14 
" clip-path="url(#p3845343026)" style="fill: none; stroke-dasharray: 0.5,0.825; stroke-dashoffset: 0; stroke: #d9d9d9; stroke-width: 0.5"/>
     </g>
     <g id="line2d_26">
      <g>
       <use xlink:href="#mf5301bee8a" x="78.738601" y="246.2" style="stroke: #000000; stroke-width: 0.8"/>
      </g>
     </g>
     <g id="text_6">
      <!-- 0 -->
      <g transform="translate(75.557351 260.797656) scale(0.1 -0.1)">
       <defs>
        <path id="DejaVuSans-13" d="M 2034 4250 
Q 1547 4250 1301 3770 
Q 1056 3291 1056 2328 
Q 1056 1369 1301 889 
Q 1547 409 2034 409 
Q 2525 409 2770 889 
Q 3016 1369 3016 2328 
Q 3016 3291 2770 3770 
Q 2525 4250 2034 4250 
z
M 2034 4750 
Q 2819 4750 3233 4129 
Q 3647 3509 3647 2328 
Q 3647 1150 3233 529 
Q 2819 -91 2034 -91 
Q 1250 -91 836 529 
Q 422 1150 422 2328 
Q 422 3509 836 4129 
Q 1250 4750 2034 4750 
z
" transform="scale(0.015625)"/>
       </defs>
       <use xlink:href="#DejaVuSans-13"/>
      </g>
     </g>
    </g>
    <g id="xtick_9">
     <g id="line2d_27">
      <path d="M 128.534424 246.2 
L 128.534424 177.14 
" clip-path="url(#p3845343026)" style="fill: none; stroke-dasharray: 0.5,0.825; stroke-dashoffset: 0; stroke: #d9d9d9; stroke-width: 0.5"/>
     </g>
     <g id="line2d_28">
      <g>
       <use xlink:href="#mf5301bee8a" x="128.534424" y="246.2" style="stroke: #000000; stroke-width: 0.8"/>
      </g>
     </g>
     <g id="text_7">
      <!-- 2 -->
      <g transform="translate(125.353174 260.797656) scale(0.1 -0.1)">
       <defs>
        <path id="DejaVuSans-15" d="M 1228 531 
L 3431 531 
L 3431 0 
L 469 0 
L 469 531 
Q 828 903 1448 1529 
Q 2069 2156 2228 2338 
Q 2531 2678 2651 2914 
Q 2772 3150 2772 3378 
Q 2772 3750 2511 3984 
Q 2250 4219 1831 4219 
Q 1534 4219 1204 4116 
Q 875 4013 500 3803 
L 500 4441 
Q 881 4594 1212 4672 
Q 1544 4750 1819 4750 
Q 2544 4750 2975 4387 
Q 3406 4025 3406 3419 
Q 3406 3131 3298 2873 
Q 3191 2616 2906 2266 
Q 2828 2175 2409 1742 
Q 1991 1309 1228 531 
z
" transform="scale(0.015625)"/>
       </defs>
       <use xlink:href="#DejaVuSans-15"/>
      </g>
     </g>
    </g>
    <g id="xtick_10">
     <g id="line2d_29">
      <path d="M 178.330247 246.2 
L 178.330247 177.14 
" clip-path="url(#p3845343026)" style="fill: none; stroke-dasharray: 0.5,0.825; stroke-dashoffset: 0; stroke: #d9d9d9; stroke-width: 0.5"/>
     </g>
     <g id="line2d_30">
      <g>
       <use xlink:href="#mf5301bee8a" x="178.330247" y="246.2" style="stroke: #000000; stroke-width: 0.8"/>
      </g>
     </g>
     <g id="text_8">
      <!-- 4 -->
      <g transform="translate(175.148997 260.797656) scale(0.1 -0.1)">
       <defs>
        <path id="DejaVuSans-17" d="M 2419 4116 
L 825 1625 
L 2419 1625 
L 2419 4116 
z
M 2253 4666 
L 3047 4666 
L 3047 1625 
L 3713 1625 
L 3713 1100 
L 3047 1100 
L 3047 0 
L 2419 0 
L 2419 1100 
L 313 1100 
L 313 1709 
L 2253 4666 
z
" transform="scale(0.015625)"/>
       </defs>
       <use xlink:href="#DejaVuSans-17"/>
      </g>
     </g>
    </g>
    <g id="xtick_11">
     <g id="line2d_31">
      <path d="M 228.12607 246.2 
L 228.12607 177.14 
" clip-path="url(#p3845343026)" style="fill: none; stroke-dasharray: 0.5,0.825; stroke-dashoffset: 0; stroke: #d9d9d9; stroke-width: 0.5"/>
     </g>
     <g id="line2d_32">
      <g>
       <use xlink:href="#mf5301bee8a" x="228.12607" y="246.2" style="stroke: #000000; stroke-width: 0.8"/>
      </g>
     </g>
     <g id="text_9">
      <!-- 6 -->
      <g transform="translate(224.94482 260.797656) scale(0.1 -0.1)">
       <defs>
        <path id="DejaVuSans-19" d="M 2113 2584 
Q 1688 2584 1439 2293 
Q 1191 2003 1191 1497 
Q 1191 994 1439 701 
Q 1688 409 2113 409 
Q 2538 409 2786 701 
Q 3034 994 3034 1497 
Q 3034 2003 2786 2293 
Q 2538 2584 2113 2584 
z
M 3366 4563 
L 3366 3988 
Q 3128 4100 2886 4159 
Q 2644 4219 2406 4219 
Q 1781 4219 1451 3797 
Q 1122 3375 1075 2522 
Q 1259 2794 1537 2939 
Q 1816 3084 2150 3084 
Q 2853 3084 3261 2657 
Q 3669 2231 3669 1497 
Q 3669 778 3244 343 
Q 2819 -91 2113 -91 
Q 1303 -91 875 529 
Q 447 1150 447 2328 
Q 447 3434 972 4092 
Q 1497 4750 2381 4750 
Q 2619 4750 2861 4703 
Q 3103 4656 3366 4563 
z
" transform="scale(0.015625)"/>
       </defs>
       <use xlink:href="#DejaVuSans-19"/>
      </g>
     </g>
    </g>
    <g id="xtick_12">
     <g id="line2d_33">
      <path d="M 277.921893 246.2 
L 277.921893 177.14 
" clip-path="url(#p3845343026)" style="fill: none; stroke-dasharray: 0.5,0.825; stroke-dashoffset: 0; stroke: #d9d9d9; stroke-width: 0.5"/>
     </g>
     <g id="line2d_34">
      <g>
       <use xlink:href="#mf5301bee8a" x="277.921893" y="246.2" style="stroke: #000000; stroke-width: 0.8"/>
      </g>
     </g>
     <g id="text_10">
      <!-- 8 -->
      <g transform="translate(274.740643 260.797656) scale(0.1 -0.1)">
       <defs>
        <path id="DejaVuSans-1b" d="M 2034 2216 
Q 1584 2216 1326 1975 
Q 1069 1734 1069 1313 
Q 1069 891 1326 650 
Q 1584 409 2034 409 
Q 2484 409 2743 651 
Q 3003 894 3003 1313 
Q 3003 1734 2745 1975 
Q 2488 2216 2034 2216 
z
M 1403 2484 
Q 997 2584 770 2862 
Q 544 3141 544 3541 
Q 544 4100 942 4425 
Q 1341 4750 2034 4750 
Q 2731 4750 3128 4425 
Q 3525 4100 3525 3541 
Q 3525 3141 3298 2862 
Q 3072 2584 2669 2484 
Q 3125 2378 3379 2068 
Q 3634 1759 3634 1313 
Q 3634 634 3220 271 
Q 2806 -91 2034 -91 
Q 1263 -91 848 271 
Q 434 634 434 1313 
Q 434 1759 690 2068 
Q 947 2378 1403 2484 
z
M 1172 3481 
Q 1172 3119 1398 2916 
Q 1625 2713 2034 2713 
Q 2441 2713 2670 2916 
Q 2900 3119 2900 3481 
Q 2900 3844 2670 4047 
Q 2441 4250 2034 4250 
Q 1625 4250 1398 4047 
Q 1172 3844 1172 3481 
z
" transform="scale(0.015625)"/>
       </defs>
       <use xlink:href="#DejaVuSans-1b"/>
      </g>
     </g>
    </g>
    <g id="xtick_13">
     <g id="line2d_35">
      <path d="M 327.717716 246.2 
L 327.717716 177.14 
" clip-path="url(#p3845343026)" style="fill: none; stroke-dasharray: 0.5,0.825; stroke-dashoffset: 0; stroke: #d9d9d9; stroke-width: 0.5"/>
     </g>
     <g id="line2d_36">
      <g>
       <use xlink:href="#mf5301bee8a" x="327.717716" y="246.2" style="stroke: #000000; stroke-width: 0.8"/>
      </g>
     </g>
     <g id="text_11">
      <!-- 10 -->
      <g transform="translate(321.355216 260.797656) scale(0.1 -0.1)">
       <defs>
        <path id="DejaVuSans-14" d="M 794 531 
L 1825 531 
L 1825 4091 
L 703 3866 
L 703 4441 
L 1819 4666 
L 2450 4666 
L 2450 531 
L 3481 531 
L 3481 0 
L 794 0 
L 794 531 
z
" transform="scale(0.015625)"/>
       </defs>
       <use xlink:href="#DejaVuSans-14"/>
       <use xlink:href="#DejaVuSans-13" transform="translate(63.625 0)"/>
      </g>
     </g>
    </g>
    <g id="xtick_14">
     <g id="line2d_37">
      <path d="M 377.513539 246.2 
L 377.513539 177.14 
" clip-path="url(#p3845343026)" style="fill: none; stroke-dasharray: 0.5,0.825; stroke-dashoffset: 0; stroke: #d9d9d9; stroke-width: 0.5"/>
     </g>
     <g id="line2d_38">
      <g>
       <use xlink:href="#mf5301bee8a" x="377.513539" y="246.2" style="stroke: #000000; stroke-width: 0.8"/>
      </g>
     </g>
     <g id="text_12">
      <!-- 12 -->
      <g transform="translate(371.151039 260.797656) scale(0.1 -0.1)">
       <use xlink:href="#DejaVuSans-14"/>
       <use xlink:href="#DejaVuSans-15" transform="translate(63.625 0)"/>
      </g>
     </g>
    </g>
    <g id="text_13">
     <!-- t -->
     <g transform="translate(226.141016 274.797656) scale(0.1 -0.1)">
      <use xlink:href="#DejaVuSans-57"/>
     </g>
    </g>
   </g>
   <g id="matplotlib.axis_4">
    <g id="ytick_4">
     <g id="line2d_39">
      <path d="M 63.802344 238.231538 
L 392.4 238.231538 
" clip-path="url(#p3845343026)" style="fill: none; stroke-dasharray: 0.5,0.825; stroke-dashoffset: 0; stroke: #d9d9d9; stroke-width: 0.5"/>
     </g>
     <g id="line2d_40">
      <g>
       <use xlink:href="#mf0415671d2" x="63.802344" y="238.231538" style="stroke: #000000; stroke-width: 0.8"/>
      </g>
     </g>
     <g id="text_14">
      <!-- $U_{min}$ -->
      <g transform="translate(36.002344 242.030367) scale(0.1 -0.1)">
       <defs>
        <path id="DejaVuSans-Oblique-38" d="M 991 4666 
L 1625 4666 
L 1075 1831 
Q 1041 1641 1027 1517 
Q 1013 1394 1013 1300 
Q 1013 869 1253 645 
Q 1494 422 1959 422 
Q 2563 422 2898 753 
Q 3234 1084 3378 1831 
L 3928 4666 
L 4563 4666 
L 4000 1753 
Q 3816 809 3300 359 
Q 2784 -91 1888 -91 
Q 1188 -91 780 261 
Q 372 613 372 1216 
Q 372 1325 387 1461 
Q 403 1597 434 1753 
L 991 4666 
z
" transform="scale(0.015625)"/>
        <path id="DejaVuSans-Oblique-50" d="M 5747 2113 
L 5338 0 
L 4763 0 
L 5166 2094 
Q 5191 2228 5203 2325 
Q 5216 2422 5216 2491 
Q 5216 2772 5059 2928 
Q 4903 3084 4622 3084 
Q 4203 3084 3875 2770 
Q 3547 2456 3450 1953 
L 3066 0 
L 2491 0 
L 2900 2094 
Q 2925 2209 2937 2307 
Q 2950 2406 2950 2484 
Q 2950 2769 2794 2926 
Q 2638 3084 2363 3084 
Q 1938 3084 1609 2770 
Q 1281 2456 1184 1953 
L 800 0 
L 225 0 
L 909 3500 
L 1484 3500 
L 1375 2956 
Q 1609 3263 1923 3423 
Q 2238 3584 2597 3584 
Q 2978 3584 3223 3384 
Q 3469 3184 3519 2828 
Q 3781 3197 4126 3390 
Q 4472 3584 4856 3584 
Q 5306 3584 5551 3325 
Q 5797 3066 5797 2591 
Q 5797 2488 5784 2364 
Q 5772 2241 5747 2113 
z
" transform="scale(0.015625)"/>
        <path id="DejaVuSans-Oblique-4c" d="M 1172 4863 
L 1747 4863 
L 1606 4134 
L 1031 4134 
L 1172 4863 
z
M 909 3500 
L 1484 3500 
L 800 0 
L 225 0 
L 909 3500 
z
" transform="scale(0.015625)"/>
        <path id="DejaVuSans-Oblique-51" d="M 3566 2113 
L 3156 0 
L 2578 0 
L 2988 2091 
Q 3016 2238 3031 2350 
Q 3047 2463 3047 2528 
Q 3047 2791 2881 2937 
Q 2716 3084 2419 3084 
Q 1956 3084 1622 2776 
Q 1288 2469 1184 1941 
L 800 0 
L 225 0 
L 903 3500 
L 1478 3500 
L 1363 2950 
Q 1603 3253 1940 3418 
Q 2278 3584 2650 3584 
Q 3113 3584 3367 3334 
Q 3622 3084 3622 2631 
Q 3622 2519 3608 2391 
Q 3594 2263 3566 2113 
z
" transform="scale(0.015625)"/>
       </defs>
       <use xlink:href="#DejaVuSans-Oblique-38" transform="translate(0 0.09375)"/>
       <use xlink:href="#DejaVuSans-Oblique-50" transform="translate(73.193359 -14.906201) scale(0.7)"/>
       <use xlink:href="#DejaVuSans-Oblique-4c" transform="translate(141.381836 -14.906201) scale(0.7)"/>
       <use xlink:href="#DejaVuSans-Oblique-51" transform="translate(160.830078 -14.906201) scale(0.7)"/>
      </g>
     </g>
    </g>
    <g id="ytick_5">
     <g id="line2d_41">
      <path d="M 63.802344 185.108462 
L 392.4 185.108462 
" clip-path="url(#p3845343026)" style="fill: none; stroke-dasharray: 0.5,0.825; stroke-dashoffset: 0; stroke: #d9d9d9; stroke-width: 0.5"/>
     </g>
     <g id="line2d_42">
      <g>
       <use xlink:href="#mf0415671d2" x="63.802344" y="185.108462" style="stroke: #000000; stroke-width: 0.8"/>
      </g>
     </g>
     <g id="text_15">
      <!-- $U_{max}$ -->
      <g transform="translate(33.902344 188.90729) scale(0.1 -0.1)">
       <defs>
        <path id="DejaVuSans-Oblique-44" d="M 3438 1997 
L 3047 0 
L 2472 0 
L 2578 531 
Q 2325 219 2001 64 
Q 1678 -91 1281 -91 
Q 834 -91 548 182 
Q 263 456 263 884 
Q 263 1497 752 1853 
Q 1241 2209 2100 2209 
L 2900 2209 
L 2931 2363 
Q 2938 2388 2941 2417 
Q 2944 2447 2944 2509 
Q 2944 2788 2717 2942 
Q 2491 3097 2081 3097 
Q 1800 3097 1504 3025 
Q 1209 2953 897 2809 
L 997 3341 
Q 1322 3463 1633 3523 
Q 1944 3584 2234 3584 
Q 2853 3584 3176 3315 
Q 3500 3047 3500 2534 
Q 3500 2431 3484 2292 
Q 3469 2153 3438 1997 
z
M 2816 1759 
L 2241 1759 
Q 1534 1759 1195 1570 
Q 856 1381 856 984 
Q 856 709 1029 553 
Q 1203 397 1509 397 
Q 1978 397 2328 733 
Q 2678 1069 2791 1631 
L 2816 1759 
z
" transform="scale(0.015625)"/>
        <path id="DejaVuSans-Oblique-5b" d="M 3841 3500 
L 2234 1784 
L 3219 0 
L 2559 0 
L 1819 1388 
L 531 0 
L -166 0 
L 1556 1844 
L 641 3500 
L 1300 3500 
L 1972 2234 
L 3144 3500 
L 3841 3500 
z
" transform="scale(0.015625)"/>
       </defs>
       <use xlink:href="#DejaVuSans-Oblique-38" transform="translate(0 0.09375)"/>
       <use xlink:href="#DejaVuSans-Oblique-50" transform="translate(73.193359 -14.906201) scale(0.7)"/>
       <use xlink:href="#DejaVuSans-Oblique-44" transform="translate(141.381836 -14.906201) scale(0.7)"/>
       <use xlink:href="#DejaVuSans-Oblique-5b" transform="translate(184.277344 -14.906201) scale(0.7)"/>
      </g>
     </g>
    </g>
    <g id="text_16">
     <!-- $u(t)$ -->
     <g transform="translate(27.5 220.72) rotate(-90) scale(0.1 -0.1)">
      <defs>
       <path id="DejaVuSans-Oblique-58" d="M 428 1388 
L 838 3500 
L 1416 3500 
L 1006 1409 
Q 975 1256 961 1147 
Q 947 1038 947 966 
Q 947 700 1109 554 
Q 1272 409 1569 409 
Q 2031 409 2368 721 
Q 2706 1034 2809 1563 
L 3194 3500 
L 3769 3500 
L 3091 0 
L 2516 0 
L 2631 550 
Q 2388 244 2052 76 
Q 1716 -91 1338 -91 
Q 878 -91 622 161 
Q 366 413 366 863 
Q 366 956 381 1097 
Q 397 1238 428 1388 
z
" transform="scale(0.015625)"/>
      </defs>
      <use xlink:href="#DejaVuSans-Oblique-58" transform="translate(0 0.125)"/>
      <use xlink:href="#DejaVuSans-b" transform="translate(63.378906 0.125)"/>
      <use xlink:href="#DejaVuSans-Oblique-57" transform="translate(102.392578 0.125)"/>
      <use xlink:href="#DejaVuSans-c" transform="translate(141.601562 0.125)"/>
     </g>
    </g>
   </g>
   <g id="line2d_43">
    <path d="M 78.738601 238.231538 
L 78.788397 238.231538 
L 78.788397 185.108462 
L 78.887988 185.108462 
L 99.25448 185.108462 
L 99.25448 238.231538 
L 99.354072 238.231538 
L 105.32957 238.231538 
L 105.32957 185.108462 
L 105.429162 185.108462 
L 111.404661 185.108462 
L 111.404661 238.231538 
L 111.504252 238.231538 
L 117.479751 238.231538 
L 117.479751 185.108462 
L 117.579343 185.108462 
L 123.554842 185.108462 
L 123.554842 238.231538 
L 123.654433 238.231538 
L 129.629932 238.231538 
L 129.629932 185.108462 
L 129.729524 185.108462 
L 135.705022 185.108462 
L 135.705022 238.231538 
L 135.804614 238.231538 
L 141.780113 238.231538 
L 141.780113 185.108462 
L 141.879704 185.108462 
L 147.855203 185.108462 
L 147.855203 238.231538 
L 147.954795 238.231538 
L 153.930294 238.231538 
L 153.930294 185.108462 
L 154.029885 185.108462 
L 160.005384 185.108462 
L 160.005384 238.231538 
L 160.104976 238.231538 
L 166.080474 238.231538 
L 166.080474 185.108462 
L 166.180066 185.108462 
L 172.155565 185.108462 
L 172.155565 238.231538 
L 172.255156 238.231538 
L 178.230655 238.231538 
L 178.230655 185.108462 
L 178.330247 185.108462 
L 184.305746 185.108462 
L 184.305746 238.231538 
L 184.405337 238.231538 
L 190.380836 238.231538 
L 190.380836 185.108462 
L 190.480428 185.108462 
L 196.455926 185.108462 
L 196.455926 238.231538 
L 196.555518 238.231538 
L 202.531017 238.231538 
L 202.531017 185.108462 
L 202.630608 185.108462 
L 208.606107 185.108462 
L 208.606107 238.231538 
L 208.705699 238.231538 
L 214.681198 238.231538 
L 214.681198 185.108462 
L 214.780789 185.108462 
L 220.756288 185.108462 
L 220.756288 238.231538 
L 220.85588 238.231538 
L 226.831378 238.231538 
L 226.831378 185.108462 
L 226.93097 185.108462 
L 232.906469 185.108462 
L 232.906469 238.231538 
L 233.00606 238.231538 
L 238.981559 238.231538 
L 238.981559 185.108462 
L 239.081151 185.108462 
L 245.05665 185.108462 
L 245.05665 238.231538 
L 245.156241 238.231538 
L 251.13174 238.231538 
L 251.13174 185.108462 
L 251.231332 185.108462 
L 257.20683 185.108462 
L 257.20683 238.231538 
L 257.306422 238.231538 
L 263.281921 238.231538 
L 263.281921 185.108462 
L 263.381512 185.108462 
L 269.357011 185.108462 
L 269.357011 238.231538 
L 269.456603 238.231538 
L 275.432102 238.231538 
L 275.432102 185.108462 
L 275.531693 185.108462 
L 281.507192 185.108462 
L 281.507192 238.231538 
L 281.606784 238.231538 
L 287.582282 238.231538 
L 287.582282 185.108462 
L 287.681874 185.108462 
L 293.657373 185.108462 
L 293.657373 238.231538 
L 293.756964 238.231538 
L 299.732463 238.231538 
L 299.732463 185.108462 
L 299.832055 185.108462 
L 305.807554 185.108462 
L 305.807554 238.231538 
L 305.907145 238.231538 
L 311.882644 238.231538 
L 311.882644 185.108462 
L 311.982236 185.108462 
L 317.957734 185.108462 
L 317.957734 238.231538 
L 318.057326 238.231538 
L 324.032825 238.231538 
L 324.032825 185.108462 
L 324.132416 185.108462 
L 330.107915 185.108462 
L 330.107915 238.231538 
L 330.207507 238.231538 
L 336.183006 238.231538 
L 336.183006 185.108462 
L 336.282597 185.108462 
L 342.258096 185.108462 
L 342.258096 238.231538 
L 342.357688 238.231538 
L 348.333186 238.231538 
L 348.333186 185.108462 
L 348.432778 185.108462 
L 354.408277 185.108462 
L 354.408277 238.231538 
L 354.507869 238.231538 
L 360.483367 238.231538 
L 360.483367 185.108462 
L 360.582959 185.108462 
L 366.558458 185.108462 
L 366.558458 238.231538 
L 366.658049 238.231538 
L 372.633548 238.231538 
L 372.633548 185.108462 
L 372.73314 185.108462 
L 377.463743 185.108462 
L 377.463743 185.108462 
" clip-path="url(#p3845343026)" style="fill: none; stroke: #000000; stroke-width: 1.2; stroke-linecap: square"/>
   </g>
   <g id="patch_6">
    <path d="M 63.802344 246.2 
L 63.802344 177.14 
" style="fill: none; stroke: #000000; stroke-width: 0.8; stroke-linejoin: miter; stroke-linecap: square"/>
   </g>
   <g id="patch_7">
    <path d="M 63.802344 246.2 
L 392.4 246.2 
" style="fill: none; stroke: #000000; stroke-width: 0.8; stroke-linejoin: miter; stroke-linecap: square"/>
   </g>
  </g>
 </g>
 <defs>
  <clipPath id="p863c66ac8a">
   <rect x="63.802344" y="24.72" width="328.597656" height="138.12"/>
  </clipPath>
  <clipPath id="p3845343026">
   <rect x="63.802344" y="177.14" width="328.597656" height="69.06"/>
  </clipPath>
 </defs>
</svg>
