<?xml version="1.0" encoding="UTF-8" standalone="no"?>
<!DOCTYPE svg PUBLIC "-//W3C//DTD SVG 1.1//EN"
 "http://www.w3.org/Graphics/SVG/1.1/DTD/svg11.dtd">
<!-- Generated by graphviz version 2.43.0 (0)
 -->
<!-- Title: lazo_cerrado Pages: 1 -->
<svg width="447pt" height="81pt"
 viewBox="0.00 0.00 447.44 81.00" xmlns="http://www.w3.org/2000/svg" xmlns:xlink="http://www.w3.org/1999/xlink">
<g id="graph0" class="graph" transform="scale(1 1) rotate(0) translate(4 77)">
<title>lazo_cerrado</title>
<!-- x -->
<g id="node1" class="node">
<title>x</title>
<text text-anchor="middle" x="27" y="-48.4" font-family="Helvetica,sans-Serif" font-size="12.00">x</text>
</g>
<!-- suma -->
<g id="node2" class="node">
<title>suma</title>
<ellipse fill="none" stroke="black" stroke-width="1.2" cx="100" cy="-51.5" rx="10" ry="10"/>
</g>
<!-- x&#45;&gt;suma -->
<g id="edge1" class="edge">
<title>x&#45;&gt;suma</title>
<path fill="none" stroke="black" d="M54.18,-51.5C54.18,-51.5 82.92,-51.5 82.92,-51.5"/>
<polygon fill="black" stroke="black" points="82.92,-53.95 89.92,-51.5 82.92,-49.05 82.92,-53.95"/>
</g>
<!-- C -->
<g id="node3" class="node">
<title>C</title>
<polygon fill="none" stroke="black" points="211,-73 146,-73 146,-30 211,-30 211,-73"/>
<text text-anchor="middle" x="178.5" y="-48.4" font-family="Helvetica,sans-Serif" font-size="12.00">C</text>
</g>
<!-- suma&#45;&gt;C -->
<g id="edge2" class="edge">
<title>suma&#45;&gt;C</title>
<path fill="none" stroke="black" d="M110.26,-51.5C110.26,-51.5 138.8,-51.5 138.8,-51.5"/>
<polygon fill="black" stroke="black" points="138.8,-53.95 145.8,-51.5 138.8,-49.05 138.8,-53.95"/>
<text text-anchor="middle" x="121.03" y="-42.7" font-family="Helvetica,sans-Serif" font-size="11.00">e</text>
</g>
<!-- G -->
<g id="node4" class="node">
<title>G</title>
<polygon fill="none" stroke="black" points="312,-73 247,-73 247,-30 312,-30 312,-73"/>
<text text-anchor="middle" x="279.5" y="-48.4" font-family="Helvetica,sans-Serif" font-size="12.00">G</text>
</g>
<!-- C&#45;&gt;G -->
<g id="edge3" class="edge">
<title>C&#45;&gt;G</title>
<path fill="none" stroke="black" d="M211.01,-51.5C211.01,-51.5 239.7,-51.5 239.7,-51.5"/>
<polygon fill="black" stroke="black" points="239.7,-53.95 246.7,-51.5 239.7,-49.05 239.7,-53.95"/>
</g>
<!-- nodo -->
<g id="node5" class="node">
<title>nodo</title>
<ellipse fill="black" stroke="black" cx="348.72" cy="-51.5" rx="0.72" ry="0.72"/>
</g>
<!-- G&#45;&gt;nodo -->
<g id="edge4" class="edge">
<title>G&#45;&gt;nodo</title>
<path fill="none" stroke="black" d="M312.08,-51.5C327.79,-51.5 344.06,-51.5 347.88,-51.5"/>
</g>
<!-- nodo&#45;&gt;suma -->
<g id="edge6" class="edge">
<title>nodo&#45;&gt;suma</title>
<path fill="none" stroke="black" d="M349.44,-51.39C349.44,-49.07 349.44,-12 349.44,-12 349.44,-12 100.44,-12 100.44,-12 100.44,-12 100.44,-34.12 100.44,-34.12"/>
<polygon fill="black" stroke="black" points="97.99,-34.12 100.44,-41.12 102.89,-34.12 97.99,-34.12"/>
<text text-anchor="middle" x="228.57" y="-3.2" font-family="Helvetica,sans-Serif" font-size="11.00">−</text>
</g>
<!-- y -->
<g id="node6" class="node">
<title>y</title>
<text text-anchor="middle" x="412.44" y="-48.4" font-family="Helvetica,sans-Serif" font-size="12.00">y</text>
</g>
<!-- nodo&#45;&gt;y -->
<g id="edge5" class="edge">
<title>nodo&#45;&gt;y</title>
<path fill="none" stroke="black" d="M349.83,-51.5C349.83,-51.5 378.33,-51.5 378.33,-51.5"/>
<polygon fill="black" stroke="black" points="378.33,-53.95 385.33,-51.5 378.33,-49.05 378.33,-53.95"/>
</g>
</g>
</svg>
